<svg xmlns="http://www.w3.org/2000/svg" viewBox="0 0 100 100" width="100%" height="100%">
  <defs>
    <linearGradient id="aiGrad" x1="0%" y1="0%" x2="100%" y2="100%">
      <stop offset="0%" stop-color="#8B3FE8" />
      <stop offset="50%" stop-color="#4B5CF5" />
      <stop offset="100%" stop-color="#2AA8C4" />
    </linearGradient>
  </defs>
  <rect width="100" height="100" rx="24" fill="url(#aiGrad)" />
  <g fill="#ffffff">
    <path d="M50 20 C50 34 36 48 22 50 C36 52 50 66 50 80 C50 66 64 52 78 50 C64 48 50 34 50 20 Z" />
    <path d="M74 18 C74 25 68 31 61 32 C68 33 74 39 74 46 C74 39 80 33 87 32 C80 31 74 25 74 18 Z" opacity="0.9" />
    <path d="M26 64 C26 69 21 73 16 74 C21 75 26 79 26 84 C26 79 31 75 36 74 C31 73 26 69 26 64 Z" opacity="0.8" />
  </g>
</svg>
